<mxfile host="app.diagrams.net" modified="2022-03-11T07:57:04.499Z" agent="5.0 (Macintosh; Intel Mac OS X 10_15_7) AppleWebKit/537.36 (KHTML, like Gecko) Chrome/99.0.4844.51 Safari/537.36" etag="RH0104wYiH62twBpbOte" version="17.1.0" type="github">
  <diagram name="Page-1" id="fc2ac565-0d4e-3f0d-88b0-a54af1634ed7">
    <mxGraphModel dx="1899" dy="1324" grid="1" gridSize="10" guides="1" tooltips="1" connect="0" arrows="1" fold="1" page="1" pageScale="1.5" pageWidth="1169" pageHeight="827" background="none" math="0" shadow="0">
      <root>
        <mxCell id="0" style=";html=1;" />
        <mxCell id="1" style=";html=1;" parent="0" />
      </root>
    </mxGraphModel>
  </diagram>
</mxfile>
